<svg version="1.1" xmlns="http://www.w3.org/2000/svg" xmlns:xlink="http://www.w3.org/1999/xlink" width="1100" height="850" viewBox="0 0 1100 850"><defs/><g><rect fill="rgb(255,255,255)" stroke="none" x="0" y="0" width="1100" height="850" transform="matrix(1 0 0 1 0 0)" fill-opacity="1"/><path fill="none" stroke="rgb(0,0,0)" paint-order="fill stroke markers" d=" M 530.0356377744321 425 C 530.0356377744321 303.51703724333566 628.5170372433356 205.03563777443208 750 205.03563777443208 C 871.4829627566644 205.03563777443208 969.9643622255679 303.51703724333566 969.9643622255679 425 C 969.9643622255679 546.4829627566644 871.4829627566644 644.9643622255679 750 644.9643622255679 C 628.5170372433356 644.9643622255679 530.0356377744321 546.4829627566644 530.0356377744321 425" stroke-opacity="1" stroke-linecap="round" stroke-miterlimit="10" stroke-dasharray=""/><path fill="none" stroke="rgb(0,0,0)" paint-order="fill stroke markers" d=" M 528.9148752649404 446.14353081190586 C 528.9148752649404 324.6605680552415 627.3962747338439 226.17916858633794 748.8792374905083 226.17916858633794 C 870.3622002471727 226.17916858633794 968.8435997160763 324.6605680552415 968.8435997160763 446.14353081190586 C 968.8435997160763 567.6264935685703 870.3622002471727 666.1078930374738 748.8792374905083 666.1078930374738 C 627.3962747338439 666.1078930374738 528.9148752649404 567.6264935685703 528.9148752649404 446.14353081190586" stroke-opacity="1" stroke-linecap="round" stroke-miterlimit="10" stroke-dasharray=""/><path fill="none" stroke="rgb(0,0,0)" paint-order="fill stroke markers" d=" M 525.565148822492 467.0500928572891 C 525.565148822492 345.56713010062475 624.0465482913955 247.08573063172116 745.5295110480599 247.08573063172116 C 867.0124738047243 247.08573063172116 965.4938732736279 345.56713010062475 965.4938732736279 467.0500928572891 C 965.4938732736279 588.5330556139535 867.0124738047243 687.014455082857 745.5295110480599 687.014455082857 C 624.0465482913955 687.014455082857 525.565148822492 588.5330556139535 525.565148822492 467.0500928572891" stroke-opacity="1" stroke-linecap="round" stroke-miterlimit="10" stroke-dasharray=""/><path fill="none" stroke="rgb(0,0,0)" paint-order="fill stroke markers" d=" M 520.0240009252244 487.4853732267213 C 520.0240009252244 366.002410470057 618.505400394128 267.5210110011534 739.9883631507923 267.5210110011534 C 861.4713259074567 267.5210110011534 959.9527253763603 366.002410470057 959.9527253763603 487.4853732267213 C 959.9527253763603 608.9683359833857 861.4713259074567 707.4497354522892 739.9883631507923 707.4497354522892 C 618.505400394128 707.4497354522892 520.0240009252244 608.9683359833857 520.0240009252244 487.4853732267213" stroke-opacity="1" stroke-linecap="round" stroke-miterlimit="10" stroke-dasharray=""/><path fill="none" stroke="rgb(0,0,0)" paint-order="fill stroke markers" d=" M 512.3535346813658 507.2203409591125 C 512.3535346813658 385.73737820244816 610.8349341502693 287.25597873354457 732.3178969069337 287.25597873354457 C 853.8008596635981 287.25597873354457 952.2822591325016 385.73737820244816 952.2822591325016 507.2203409591125 C 952.2822591325016 628.7033037157769 853.8008596635981 727.1847031846804 732.3178969069337 727.1847031846804 C 610.8349341502693 727.1847031846804 512.3535346813658 628.7033037157769 512.3535346813658 507.2203409591125" stroke-opacity="1" stroke-linecap="round" stroke-miterlimit="10" stroke-dasharray=""/><path fill="none" stroke="rgb(0,0,0)" paint-order="fill stroke markers" d=" M 502.63971780088036 526.0338139348576 C 502.63971780088036 404.5508511781932 601.1211172697839 306.06945170928964 722.6040800264483 306.06945170928964 C 844.0870427831127 306.06945170928964 942.5684422520162 404.5508511781932 942.5684422520162 526.0338139348576 C 942.5684422520162 647.516776691522 844.0870427831127 745.9981761604255 722.6040800264483 745.9981761604255 C 601.1211172697839 745.9981761604255 502.63971780088036 647.516776691522 502.63971780088036 526.0338139348576" stroke-opacity="1" stroke-linecap="round" stroke-miterlimit="10" stroke-dasharray=""/><path fill="none" stroke="rgb(0,0,0)" paint-order="fill stroke markers" d=" M 490.9914191016054 543.7149378021112 C 490.9914191016054 422.23197504544686 589.4728185705089 323.75057557654327 710.9557813271733 323.75057557654327 C 832.4387440838377 323.75057557654327 930.9201435527413 422.23197504544686 930.9201435527413 543.7149378021112 C 930.9201435527413 665.1979005587756 832.4387440838377 763.6793000276791 710.9557813271733 763.6793000276791 C 589.4728185705089 763.6793000276791 490.9914191016054 665.1979005587756 490.9914191016054 543.7149378021112" stroke-opacity="1" stroke-linecap="round" stroke-miterlimit="10" stroke-dasharray=""/><path fill="none" stroke="rgb(0,0,0)" paint-order="fill stroke markers" d=" M 477.5391883483561 560.0655491533123 C 477.5391883483561 438.58258639664797 576.0205878172596 340.1011869277444 697.503550573924 340.1011869277444 C 818.9865133305884 340.1011869277444 917.467912799492 438.58258639664797 917.467912799492 560.0655491533123 C 917.467912799492 681.5485119099767 818.9865133305884 780.0299113788802 697.503550573924 780.0299113788802 C 576.0205878172596 780.0299113788802 477.5391883483561 681.5485119099767 477.5391883483561 560.0655491533123" stroke-opacity="1" stroke-linecap="round" stroke-miterlimit="10" stroke-dasharray=""/><path fill="none" stroke="rgb(0,0,0)" paint-order="fill stroke markers" d=" M 462.43379310010494 574.902396466364 C 462.43379310010494 453.4194337096997 560.9151925690085 354.9380342407961 682.3981553256729 354.9380342407961 C 803.8811180823373 354.9380342407961 902.3625175512408 453.4194337096997 902.3625175512408 574.902396466364 C 902.3625175512408 696.3853592230284 803.8811180823373 794.866758691932 682.3981553256729 794.866758691932 C 560.9151925690085 794.866758691932 462.43379310010494 696.3853592230284 462.43379310010494 574.902396466364" stroke-opacity="1" stroke-linecap="round" stroke-miterlimit="10" stroke-dasharray=""/><path fill="none" stroke="rgb(0,0,0)" paint-order="fill stroke markers" d=" M 445.8445289637051 588.059193918991 C 445.8445289637051 466.5762311623267 544.3259284326086 368.0948316934231 665.808891189273 368.0948316934231 C 787.2918539459374 368.0948316934231 885.773253414841 466.5762311623267 885.773253414841 588.059193918991 C 885.773253414841 709.5421566756554 787.2918539459374 808.0235561445589 665.808891189273 808.0235561445589 C 544.3259284326086 808.0235561445589 445.8445289637051 709.5421566756554 445.8445289637051 588.059193918991" stroke-opacity="1" stroke-linecap="round" stroke-miterlimit="10" stroke-dasharray=""/><path fill="none" stroke="rgb(0,0,0)" paint-order="fill stroke markers" d=" M 427.9573221921978 599.3884850578945 C 427.9573221921978 477.9055223012302 526.4387216611013 379.4241228323266 647.9216844177657 379.4241228323266 C 769.4046471744301 379.4241228323266 867.8860466433337 477.9055223012302 867.8860466433337 599.3884850578945 C 867.8860466433337 720.8714478145589 769.4046471744301 819.3528472834624 647.9216844177657 819.3528472834624 C 526.4387216611013 819.3528472834624 427.9573221921978 720.8714478145589 427.9573221921978 599.3884850578945" stroke-opacity="1" stroke-linecap="round" stroke-miterlimit="10" stroke-dasharray=""/><path fill="none" stroke="rgb(0,0,0)" paint-order="fill stroke markers" d=" M 408.97264589307326 608.7632954353985 C 408.97264589307326 487.28033267873417 507.45404536197685 388.7989332098306 628.9370081186412 388.7989332098306 C 750.4199708753056 388.7989332098306 848.9013703442091 487.28033267873417 848.9013703442091 608.7632954353985 C 848.9013703442091 730.2462581920629 750.4199708753056 828.7276576609664 628.9370081186412 828.7276576609664 C 507.45404536197685 828.7276576609664 408.97264589307326 730.2462581920629 408.97264589307326 608.7632954353985" stroke-opacity="1" stroke-linecap="round" stroke-miterlimit="10" stroke-dasharray=""/><path fill="none" stroke="rgb(0,0,0)" paint-order="fill stroke markers" d=" M 389.1032732008406 616.0785556914561 C 389.1032732008406 494.5955929347918 487.5846726697442 396.1141934658882 609.0676354264085 396.1141934658882 C 730.5505981830729 396.1141934658882 829.0319976519764 494.5955929347918 829.0319976519764 616.0785556914561 C 829.0319976519764 737.5615184481205 730.5505981830729 836.042917917024 609.0676354264085 836.042917917024 C 487.5846726697442 836.042917917024 389.1032732008406 737.5615184481205 389.1032732008406 616.0785556914561" stroke-opacity="1" stroke-linecap="round" stroke-miterlimit="10" stroke-dasharray=""/><path fill="none" stroke="rgb(0,0,0)" paint-order="fill stroke markers" d=" M 368.5718925955056 621.2522791316455 C 368.5718925955056 499.7693163749812 467.05329206440916 401.2879169060776 588.5362548210735 401.2879169060776 C 710.0192175777379 401.2879169060776 808.5006170466414 499.7693163749812 808.5006170466414 621.2522791316455 C 808.5006170466414 742.7352418883099 710.0192175777379 841.2166413572135 588.5362548210735 841.2166413572135 C 467.05329206440916 841.2166413572135 368.5718925955056 742.7352418883099 368.5718925955056 621.2522791316455" stroke-opacity="1" stroke-linecap="round" stroke-miterlimit="10" stroke-dasharray=""/><path fill="none" stroke="rgb(0,0,0)" paint-order="fill stroke markers" d=" M 347.6086120935737 624.2264806033043 C 347.6086120935737 502.7435178466399 446.0900115624773 404.26211837773633 567.5729743191416 404.26211837773633 C 689.055937075806 404.26211837773633 787.5373365447095 502.7435178466399 787.5373365447095 624.2264806033043 C 787.5373365447095 745.7094433599686 689.055937075806 844.1908428288722 567.5729743191416 844.1908428288722 C 446.0900115624773 844.1908428288722 347.6086120935737 745.7094433599686 347.6086120935737 624.2264806033043" stroke-opacity="1" stroke-linecap="round" stroke-miterlimit="10" stroke-dasharray=""/><path fill="none" stroke="rgb(0,0,0)" paint-order="fill stroke markers" d=" M 326.4483802836702 624.9678263713815 C 326.4483802836702 503.4848636147172 424.9297797525738 405.0034641458136 546.4127425092381 405.0034641458136 C 667.8957052659025 405.0034641458136 766.377104734806 503.4848636147172 766.377104734806 624.9678263713815 C 766.377104734806 746.4507891280459 667.8957052659025 844.9321885969495 546.4127425092381 844.9321885969495 C 424.9297797525738 844.9321885969495 326.4483802836702 746.4507891280459 326.4483802836702 624.9678263713815" stroke-opacity="1" stroke-linecap="round" stroke-miterlimit="10" stroke-dasharray=""/><path fill="none" stroke="rgb(0,0,0)" paint-order="fill stroke markers" d=" M 305.32835311084216 623.4680077104426 C 305.32835311084216 501.9850449537783 403.80975257974575 403.5036454848747 525.2927153364101 403.5036454848747 C 646.7756780930745 403.5036454848747 745.257077561978 501.9850449537783 745.257077561978 623.4680077104426 C 745.257077561978 744.950970467107 646.7756780930745 843.4323699360106 525.2927153364101 843.4323699360106 C 403.80975257974575 843.4323699360106 305.32835311084216 744.950970467107 305.32835311084216 623.4680077104426" stroke-opacity="1" stroke-linecap="round" stroke-miterlimit="10" stroke-dasharray=""/><path fill="none" stroke="rgb(0,0,0)" paint-order="fill stroke markers" d=" M 284.48523592163707 619.7438340257501 C 284.48523592163707 498.2608712690857 382.96663539054066 399.77947180018214 504.449598147205 399.77947180018214 C 625.9325609038693 399.77947180018214 724.4139603727729 498.2608712690857 724.4139603727729 619.7438340257501 C 724.4139603727729 741.2267967824145 625.9325609038693 839.708196251318 504.449598147205 839.708196251318 C 382.96663539054066 839.708196251318 284.48523592163707 741.2267967824145 284.48523592163707 619.7438340257501" stroke-opacity="1" stroke-linecap="round" stroke-miterlimit="10" stroke-dasharray=""/><path fill="none" stroke="rgb(0,0,0)" paint-order="fill stroke markers" d=" M 264.15263055932087 613.83704445975 C 264.15263055932087 492.3540817030857 362.63403002822446 393.8726822341821 484.1169927848888 393.8726822341821 C 605.5999555415532 393.8726822341821 704.0813550104567 492.3540817030857 704.0813550104567 613.83704445975 C 704.0813550104567 735.3200072164144 605.5999555415532 833.8014066853179 484.1169927848888 833.8014066853179 C 362.63403002822446 833.8014066853179 264.15263055932087 735.3200072164144 264.15263055932087 613.83704445975" stroke-opacity="1" stroke-linecap="round" stroke-miterlimit="10" stroke-dasharray=""/><path fill="none" stroke="rgb(0,0,0)" paint-order="fill stroke markers" d=" M 244.5584172419974 605.8138400954128 C 244.5584172419974 484.3308773387485 343.039816710901 385.8494778698449 464.52277946756533 385.8494778698449 C 586.0057422242297 385.8494778698449 684.4871416931333 484.3308773387485 684.4871416931333 605.8138400954128 C 684.4871416931333 727.2968028520772 586.0057422242297 825.7782023209808 464.52277946756533 825.7782023209808 C 343.039816710901 825.7782023209808 244.5584172419974 727.2968028520772 244.5584172419974 605.8138400954128" stroke-opacity="1" stroke-linecap="round" stroke-miterlimit="10" stroke-dasharray=""/><path fill="none" stroke="rgb(0,0,0)" paint-order="fill stroke markers" d=" M 225.92220056655702 595.764141999314 C 225.92220056655702 474.28117924264967 324.4036000354606 375.7997797737461 445.88656279212495 375.7997797737461 C 567.3695255487893 375.7997797737461 665.8509250176928 474.28117924264967 665.8509250176928 595.764141999314 C 665.8509250176928 717.2471047559784 567.3695255487893 815.7285042248819 445.88656279212495 815.7285042248819 C 324.4036000354606 815.7285042248819 225.92220056655702 717.2471047559784 225.92220056655702 595.764141999314" stroke-opacity="1" stroke-linecap="round" stroke-miterlimit="10" stroke-dasharray=""/><path fill="none" stroke="rgb(0,0,0)" paint-order="fill stroke markers" d=" M 208.45284826268573 583.8005834200314 C 208.45284826268573 462.3176206633671 306.9342477315893 363.8362211944635 428.41721048825366 363.8362211944635 C 549.900173244918 363.8362211944635 648.3815727138216 462.3176206633671 648.3815727138216 583.8005834200314 C 648.3815727138216 705.2835461766958 549.900173244918 803.7649456455994 428.41721048825366 803.7649456455994 C 306.9342477315893 803.7649456455994 208.45284826268573 705.2835461766958 208.45284826268573 583.8005834200314" stroke-opacity="1" stroke-linecap="round" stroke-miterlimit="10" stroke-dasharray=""/><path fill="none" stroke="rgb(0,0,0)" paint-order="fill stroke markers" d=" M 192.34615028165632 570.0572474369231 C 192.34615028165632 448.5742846802588 290.8275497505599 350.0928852113552 412.31051250722425 350.0928852113552 C 533.7934752638886 350.0928852113552 632.2748747327921 448.5742846802588 632.2748747327921 570.0572474369231 C 632.2748747327921 691.5402101935875 533.7934752638886 790.0216096624911 412.31051250722425 790.0216096624911 C 290.8275497505599 790.0216096624911 192.34615028165632 691.5402101935875 192.34615028165632 570.0572474369231" stroke-opacity="1" stroke-linecap="round" stroke-miterlimit="10" stroke-dasharray=""/><path fill="none" stroke="rgb(0,0,0)" paint-order="fill stroke markers" d=" M 177.78262445595726 554.6881642072411 C 177.78262445595726 433.2052014505768 276.26402392486085 334.7238019816732 397.7469866815252 334.7238019816732 C 519.2299494381896 334.7238019816732 617.7113489070931 433.2052014505768 617.7113489070931 554.6881642072411 C 617.7113489070931 676.1711269639055 519.2299494381896 774.652526432809 397.7469866815252 774.652526432809 C 276.26402392486085 774.652526432809 177.78262445595726 676.1711269639055 177.78262445595726 554.6881642072411" stroke-opacity="1" stroke-linecap="round" stroke-miterlimit="10" stroke-dasharray=""/><path fill="none" stroke="rgb(0,0,0)" paint-order="fill stroke markers" d=" M 164.92549332310318 537.8655846538762 C 164.92549332310318 416.3826218972119 263.4068927920068 317.9012224283083 384.8898555486711 317.9012224283083 C 506.37281830533544 317.9012224283083 604.854217774239 416.3826218972119 604.854217774239 537.8655846538762 C 604.854217774239 659.3485474105406 506.37281830533544 757.8299468794442 384.8898555486711 757.8299468794442 C 263.4068927920068 757.8299468794442 164.92549332310318 659.3485474105406 164.92549332310318 537.8655846538762" stroke-opacity="1" stroke-linecap="round" stroke-miterlimit="10" stroke-dasharray=""/><path fill="none" stroke="rgb(0,0,0)" paint-order="fill stroke markers" d=" M 153.9188547886272 519.778049941592 C 153.9188547886272 398.2950871849277 252.40025425753078 299.8136877160241 373.8832170141951 299.8136877160241 C 495.36617977085945 299.8136877160241 593.847579239763 398.2950871849277 593.847579239763 519.778049941592 C 593.847579239763 641.2610126982564 495.36617977085945 739.74241216716 373.8832170141951 739.74241216716 C 252.40025425753078 739.74241216716 153.9188547886272 641.2610126982564 153.9188547886272 519.778049941592" stroke-opacity="1" stroke-linecap="round" stroke-miterlimit="10" stroke-dasharray=""/><path fill="none" stroke="rgb(0,0,0)" paint-order="fill stroke markers" d=" M 144.8860671307791 500.62827837833504 C 144.8860671307791 379.1453156216707 243.3674665996827 280.6639161527671 364.85042935634704 280.6639161527671 C 486.33339211301137 280.6639161527671 584.814791581915 379.1453156216707 584.814791581915 500.62827837833504 C 584.814791581915 622.1112411349994 486.33339211301137 720.592640603903 364.85042935634704 720.592640603903 C 243.3674665996827 720.592640603903 144.8860671307791 622.1112411349994 144.8860671307791 500.62827837833504" stroke-opacity="1" stroke-linecap="round" stroke-miterlimit="10" stroke-dasharray=""/><path fill="none" stroke="rgb(0,0,0)" paint-order="fill stroke markers" d=" M 137.9283664471899 480.6308934244397 C 137.9283664471899 359.14793066777537 236.40976591609348 260.6665311988718 357.8927286727578 260.6665311988718 C 479.37569142942215 260.6665311988718 577.8570908983257 359.14793066777537 577.8570908983257 480.6308934244397 C 577.8570908983257 602.1138561811041 479.37569142942215 700.5952556500076 357.8927286727578 700.5952556500076 C 236.40976591609348 700.5952556500076 137.9283664471899 602.1138561811041 137.9283664471899 480.6308934244397" stroke-opacity="1" stroke-linecap="round" stroke-miterlimit="10" stroke-dasharray=""/><path fill="none" stroke="rgb(0,0,0)" paint-order="fill stroke markers" d=" M 133.1237320386441 460.01001827334795 C 133.1237320386441 338.5270555166836 231.6051315075477 240.04565604778003 353.08809426421203 240.04565604778003 C 474.57105702087637 240.04565604778003 573.05245648978 338.5270555166836 573.05245648978 460.01001827334795 C 573.05245648978 581.4929810300123 474.57105702087637 679.9743804989159 353.08809426421203 679.9743804989159 C 231.6051315075477 679.9743804989159 133.1237320386441 581.4929810300123 133.1237320386441 460.01001827334795" stroke-opacity="1" stroke-linecap="round" stroke-miterlimit="10" stroke-dasharray=""/><path fill="none" stroke="rgb(0,0,0)" paint-order="fill stroke markers" d=" M 130.5260124463107 438.99676396288226 C 130.5260124463107 317.5138012062179 229.00741191521428 219.03240173731433 350.4903746718786 219.03240173731433 C 471.97333742854295 219.03240173731433 570.4547368974465 317.5138012062179 570.4547368974465 438.99676396288226 C 570.4547368974465 560.4797267195466 471.97333742854295 658.9611261884502 350.4903746718786 658.9611261884502 C 229.00741191521428 658.9611261884502 130.5260124463107 560.4797267195466 130.5260124463107 438.99676396288226" stroke-opacity="1" stroke-linecap="round" stroke-miterlimit="10" stroke-dasharray=""/><path fill="none" stroke="rgb(0,0,0)" paint-order="fill stroke markers" d=" M 130.16432193748233 417.82663916937855 C 130.16432193748233 296.3436764127142 228.64572140638592 197.86227694381063 350.12868416305025 197.86227694381063 C 471.6116469197146 197.86227694381063 570.0930463886182 296.3436764127142 570.0930463886182 417.82663916937855 C 570.0930463886182 539.3096019260429 471.6116469197146 637.7910013949465 350.12868416305025 637.7910013949465 C 228.64572140638592 637.7910013949465 130.16432193748233 539.3096019260429 130.16432193748233 417.82663916937855" stroke-opacity="1" stroke-linecap="round" stroke-miterlimit="10" stroke-dasharray=""/><path fill="none" stroke="rgb(0,0,0)" paint-order="fill stroke markers" d=" M 132.04271420378234 396.736910714735 C 132.04271420378234 275.2539479580707 230.52411367268593 176.7725484891671 352.00707642935026 176.7725484891671 C 473.4900391860146 176.7725484891671 571.9714386549182 275.2539479580707 571.9714386549182 396.736910714735 C 571.9714386549182 518.2198734713994 473.4900391860146 616.7012729403029 352.00707642935026 616.7012729403029 C 230.52411367268593 616.7012729403029 132.04271420378234 518.2198734713994 132.04271420378234 396.736910714735" stroke-opacity="1" stroke-linecap="round" stroke-miterlimit="10" stroke-dasharray=""/><path fill="none" stroke="rgb(0,0,0)" paint-order="fill stroke markers" d=" M 136.14013692890887 375.9639443688249 C 136.14013692890887 254.48098161216058 234.62153639781246 155.999582143257 356.1044991544768 155.999582143257 C 477.58746191114113 155.999582143257 576.0688613800447 254.48098161216058 576.0688613800447 375.9639443688249 C 576.0688613800447 497.44690712548925 477.58746191114113 595.9283065943928 356.1044991544768 595.9283065943928 C 234.62153639781246 595.9283065943928 136.14013692890887 497.44690712548925 136.14013692890887 375.9639443688249" stroke-opacity="1" stroke-linecap="round" stroke-miterlimit="10" stroke-dasharray=""/><path fill="none" stroke="rgb(0,0,0)" paint-order="fill stroke markers" d=" M 142.41066773510317 355.7405557505625 C 142.41066773510317 234.2575929938982 240.89206720400676 135.7761935249946 362.3750299606711 135.7761935249946 C 483.85799271733543 135.7761935249946 582.339392186239 234.2575929938982 582.339392186239 355.7405557505625 C 582.339392186239 477.22351850722686 483.85799271733543 575.7049179761304 362.3750299606711 575.7049179761304 C 240.89206720400676 575.7049179761304 142.41066773510317 477.22351850722686 142.41066773510317 355.7405557505625" stroke-opacity="1" stroke-linecap="round" stroke-miterlimit="10" stroke-dasharray=""/><path fill="none" stroke="rgb(0,0,0)" paint-order="fill stroke markers" d=" M 150.7840288639435 336.29340101773016 C 150.7840288639435 214.81043826106583 249.26542833284708 116.32903879216224 370.7483910895114 116.32903879216224 C 492.23135384617575 116.32903879216224 590.7127533150793 214.81043826106583 590.7127533150793 336.29340101773016 C 590.7127533150793 457.7763637743945 492.23135384617575 556.2577632432981 370.7483910895114 556.2577632432981 C 249.26542833284708 556.2577632432981 150.7840288639435 457.7763637743945 150.7840288639435 336.29340101773016" stroke-opacity="1" stroke-linecap="round" stroke-miterlimit="10" stroke-dasharray=""/><path fill="none" stroke="rgb(0,0,0)" paint-order="fill stroke markers" d=" M 161.16637482311324 317.8404365897362 C 161.16637482311324 196.35747383307188 259.64777429201683 97.87607436416829 381.13073704868117 97.87607436416829 C 502.6136998053455 97.87607436416829 601.0950992742492 196.35747383307188 601.0950992742492 317.8404365897362 C 601.0950992742492 439.32339934640055 502.6136998053455 537.8047988153041 381.13073704868117 537.8047988153041 C 259.64777429201683 537.8047988153041 161.16637482311324 439.32339934640055 161.16637482311324 317.8404365897362" stroke-opacity="1" stroke-linecap="round" stroke-miterlimit="10" stroke-dasharray=""/><path fill="none" stroke="rgb(0,0,0)" paint-order="fill stroke markers" d=" M 173.44134417149644 300.5884763737796 C 173.44134417149644 179.10551361711526 271.92274364040003 80.62411414821167 393.40570639706436 80.62411414821167 C 514.8886691537288 80.62411414821167 613.3700686226323 179.10551361711526 613.3700686226323 300.5884763737796 C 613.3700686226323 422.07143913044393 514.8886691537288 520.5528385993475 393.40570639706436 520.5528385993475 C 271.92274364040003 520.5528385993475 173.44134417149644 422.07143913044393 173.44134417149644 300.5884763737796" stroke-opacity="1" stroke-linecap="round" stroke-miterlimit="10" stroke-dasharray=""/><path fill="none" stroke="rgb(0,0,0)" paint-order="fill stroke markers" d=" M 187.47136365458476 284.73087387211314 C 187.47136365458476 163.2479111154488 285.95276312348835 64.76651164654521 407.4357258801527 64.76651164654521 C 528.918688636817 64.76651164654521 627.4000881057207 163.2479111154488 627.4000881057207 284.73087387211314 C 627.4000881057207 406.21383662877747 528.918688636817 504.69523609768106 407.4357258801527 504.69523609768106 C 285.95276312348835 504.69523609768106 187.47136365458476 406.21383662877747 187.47136365458476 284.73087387211314" stroke-opacity="1" stroke-linecap="round" stroke-miterlimit="10" stroke-dasharray=""/><path fill="none" stroke="rgb(0,0,0)" paint-order="fill stroke markers" d=" M 203.09919007393728 270.44535514847973 C 203.09919007393728 148.9623923918154 301.58058954284087 50.48099292291181 423.0635522995052 50.48099292291181 C 544.5465150561696 50.48099292291181 643.0279145250731 148.9623923918154 643.0279145250731 270.44535514847973 C 643.0279145250731 391.92831790514407 544.5465150561696 490.40971737404766 423.0635522995052 490.40971737404766 C 301.58058954284087 490.40971737404766 203.09919007393728 391.92831790514407 203.09919007393728 270.44535514847973" stroke-opacity="1" stroke-linecap="round" stroke-miterlimit="10" stroke-dasharray=""/><path fill="none" stroke="rgb(0,0,0)" paint-order="fill stroke markers" d=" M 220.14967260999765 257.8920269410203 C 220.14967260999765 136.40906418435594 318.63107207890124 37.92766471545235 440.1140348355656 37.92766471545235 C 561.59699759223 37.92766471545235 660.0783970611335 136.40906418435594 660.0783970611335 257.8920269410203 C 660.0783970611335 379.3749896976846 561.59699759223 477.8563891665882 440.1140348355656 477.8563891665882 C 318.63107207890124 477.8563891665882 220.14967260999765 379.3749896976846 220.14967260999765 257.8920269410203" stroke-opacity="1" stroke-linecap="round" stroke-miterlimit="10" stroke-dasharray=""/><path fill="none" stroke="rgb(0,0,0)" paint-order="fill stroke markers" d=" M 238.4317158468141 247.21158224597735 C 238.4317158468141 125.728619489313 336.9131153157177 27.24722002040943 458.396078072382 27.24722002040943 C 579.8790408290464 27.24722002040943 678.3604402979499 125.728619489313 678.3604402979499 247.21158224597735 C 678.3604402979499 368.6945450026417 579.8790408290464 467.1759444715453 458.396078072382 467.1759444715453 C 336.9131153157177 467.1759444715453 238.4317158468141 368.6945450026417 238.4317158468141 247.21158224597735" stroke-opacity="1" stroke-linecap="round" stroke-miterlimit="10" stroke-dasharray=""/><path fill="none" stroke="rgb(0,0,0)" paint-order="fill stroke markers" d=" M 257.7404214978194 238.5237234833401 C 257.7404214978194 117.04076072667574 356.221820966723 18.559361257772167 477.7047837233873 18.559361257772167 C 599.1877464800517 18.559361257772167 697.6691459489552 117.04076072667574 697.6691459489552 238.5237234833401 C 697.6691459489552 360.00668624000446 599.1877464800517 458.488085708908 477.7047837233873 458.488085708908 C 356.221820966723 458.488085708908 257.7404214978194 360.00668624000446 257.7404214978194 238.5237234833401" stroke-opacity="1" stroke-linecap="round" stroke-miterlimit="10" stroke-dasharray=""/><path fill="none" stroke="rgb(0,0,0)" paint-order="fill stroke markers" d=" M 277.859384829009 231.92582091699774 C 277.859384829009 110.44285816033339 376.3407842979126 11.961458691429812 497.8237470545769 11.961458691429812 C 619.3067098112413 11.961458691429812 717.7881092801449 110.44285816033339 717.7881092801449 231.92582091699774 C 717.7881092801449 353.4087836736621 619.3067098112413 451.89018314256566 497.8237470545769 451.89018314256566 C 376.3407842979126 451.89018314256566 277.859384829009 353.4087836736621 277.859384829009 231.92582091699774" stroke-opacity="1" stroke-linecap="round" stroke-miterlimit="10" stroke-dasharray=""/><path fill="none" stroke="rgb(0,0,0)" paint-order="fill stroke markers" d=" M 298.56312004206836 227.49182136532662 C 298.56312004206836 106.00885860866227 397.04451951097195 7.52745913975869 518.5274822676363 7.52745913975869 C 640.0104450243007 7.52745913975869 738.4918444932042 106.00885860866227 738.4918444932042 227.49182136532662 C 738.4918444932042 348.974784121991 640.0104450243007 447.4561835908945 518.5274822676363 447.4561835908945 C 397.04451951097195 447.4561835908945 298.56312004206836 348.974784121991 298.56312004206836 227.49182136532662" stroke-opacity="1" stroke-linecap="round" stroke-miterlimit="10" stroke-dasharray=""/><path fill="none" stroke="rgb(0,0,0)" paint-order="fill stroke markers" d=" M 319.6195874346653 225.2714194329729 C 319.6195874346653 103.78845667630854 418.10098690356887 5.3070572074049664 539.5839496602332 5.3070572074049664 C 661.0669124168976 5.3070572074049664 759.5483118858011 103.78845667630854 759.5483118858011 225.2714194329729 C 759.5483118858011 346.7543821896372 661.0669124168976 445.2357816585408 539.5839496602332 445.2357816585408 C 418.10098690356887 445.2357816585408 319.6195874346653 346.7543821896372 319.6195874346653 225.2714194329729" stroke-opacity="1" stroke-linecap="round" stroke-miterlimit="10" stroke-dasharray=""/><path fill="none" stroke="rgb(0,0,0)" paint-order="fill stroke markers" d=" M 340.7927940144401 225.28950055235438 C 340.7927940144401 103.80653779569003 439.2741934833437 5.325138326786458 560.757156240008 5.325138326786458 C 682.2401189966724 5.325138326786458 780.721518465576 103.80653779569003 780.721518465576 225.28950055235438 C 780.721518465576 346.77246330901875 682.2401189966724 445.25386277792234 560.757156240008 445.25386277792234 C 439.2741934833437 445.25386277792234 340.7927940144401 346.77246330901875 340.7927940144401 225.28950055235438" stroke-opacity="1" stroke-linecap="round" stroke-miterlimit="10" stroke-dasharray=""/><path fill="none" stroke="rgb(0,0,0)" paint-order="fill stroke markers" d=" M 361.8454384199895 227.54586207706384 C 361.8454384199895 106.0628993203995 460.32683788889307 7.58149985149592 581.8098006455574 7.58149985149592 C 703.2927634022218 7.58149985149592 801.7741628711253 106.0628993203995 801.7741628711253 227.54586207706384 C 801.7741628711253 349.0288248337282 703.2927634022218 447.51022430263174 581.8098006455574 447.51022430263174 C 460.32683788889307 447.51022430263174 361.8454384199895 349.0288248337282 361.8454384199895 227.54586207706384" stroke-opacity="1" stroke-linecap="round" stroke-miterlimit="10" stroke-dasharray=""/><path fill="none" stroke="rgb(0,0,0)" paint-order="fill stroke markers" d=" M 382.5415705055593 232.01521555305368 C 382.5415705055593 110.53225279638933 481.0229699744629 12.050853327485754 602.5059327311272 12.050853327485754 C 723.9888954877916 12.050853327485754 822.4702949566952 110.53225279638933 822.4702949566952 232.01521555305368 C 822.4702949566952 353.498178309718 723.9888954877916 451.9795777786216 602.5059327311272 451.9795777786216 C 481.0229699744629 451.9795777786216 382.5415705055593 353.498178309718 382.5415705055593 232.01521555305368" stroke-opacity="1" stroke-linecap="round" stroke-miterlimit="10" stroke-dasharray=""/><path fill="none" stroke="rgb(0,0,0)" paint-order="fill stroke markers" d=" M 402.6492357818198 238.64747014214834 C 402.6492357818198 117.16450738548399 501.1306352507234 18.68310791658041 622.6135980073877 18.68310791658041 C 744.0965607640521 18.68310791658041 842.5779602329557 117.16450738548399 842.5779602329557 238.64747014214834 C 842.5779602329557 360.13043289881267 744.0965607640521 458.61183236771626 622.6135980073877 458.61183236771626 C 501.1306352507234 458.61183236771626 402.6492357818198 360.13043289881267 402.6492357818198 238.64747014214834" stroke-opacity="1" stroke-linecap="round" stroke-miterlimit="10" stroke-dasharray=""/><path fill="none" stroke="rgb(0,0,0)" paint-order="fill stroke markers" d=" M 421.9430750748204 247.3682940213792 C 421.9430750748204 125.88533126471485 520.4244745437239 27.403931795811275 641.9074373003883 27.403931795811275 C 763.3904000570527 27.403931795811275 861.8717995259562 125.88533126471485 861.8717995259562 247.3682940213792 C 861.8717995259562 368.85125677804353 763.3904000570527 467.3326562469471 641.9074373003883 467.3326562469471 C 520.4244745437239 467.3326562469471 421.9430750748204 368.85125677804353 421.9430750748204 247.3682940213792" stroke-opacity="1" stroke-linecap="round" stroke-miterlimit="10" stroke-dasharray=""/><path fill="none" stroke="rgb(0,0,0)" paint-order="fill stroke markers" d=" M 440.2068502671236 258.079947466189 C 440.2068502671236 136.5969847095247 538.6882497360272 38.1155852406211 660.1712124926916 38.1155852406211 C 781.654175249356 38.1155852406211 880.1355747182595 136.5969847095247 880.1355747182595 258.079947466189 C 880.1355747182595 379.56291022285336 781.654175249356 478.04430969175695 660.1712124926916 478.04430969175695 C 538.6882497360272 478.04430969175695 440.2068502671236 379.56291022285336 440.2068502671236 258.079947466189" stroke-opacity="1" stroke-linecap="round" stroke-miterlimit="10" stroke-dasharray=""/><path fill="none" stroke="rgb(0,0,0)" paint-order="fill stroke markers" d=" M 457.2358678135563 270.66237828062174 C 457.2358678135563 149.1794155239574 555.7172672824598 50.69801605505381 677.2002300391242 50.69801605505381 C 798.6831927957886 50.69801605505381 897.1645922646921 149.1794155239574 897.1645922646921 270.66237828062174 C 897.1645922646921 392.1453410372861 798.6831927957886 490.62674050618966 677.2002300391242 490.62674050618966 C 555.7172672824598 490.62674050618966 457.2358678135563 392.1453410372861 457.2358678135563 270.66237828062174" stroke-opacity="1" stroke-linecap="round" stroke-miterlimit="10" stroke-dasharray=""/><path fill="none" stroke="rgb(0,0,0)" paint-order="fill stroke markers" d=" M 472.8392728697231 284.9745672973265 C 472.8392728697231 163.49160454066214 571.3206723386267 65.01020507175855 692.803635095291 65.01020507175855 C 814.2865978519554 65.01020507175855 912.767997320859 163.49160454066214 912.767997320859 284.9745672973265 C 912.767997320859 406.4575300539908 814.2865978519554 504.9389295228944 692.803635095291 504.9389295228944 C 571.3206723386267 504.9389295228944 472.8392728697231 406.4575300539908 472.8392728697231 284.9745672973265" stroke-opacity="1" stroke-linecap="round" stroke-miterlimit="10" stroke-dasharray=""/><path fill="none" stroke="rgb(0,0,0)" paint-order="fill stroke markers" d=" M 486.8421883215507 300.85610886751635 C 486.8421883215507 179.37314611085202 585.3235877904542 80.89174664194843 706.8065505471186 80.89174664194843 C 828.289513303783 80.89174664194843 926.7709127726865 179.37314611085202 926.7709127726865 300.85610886751635 C 926.7709127726865 422.3390716241807 828.289513303783 520.8204710930843 706.8065505471186 520.8204710930843 C 585.3235877904542 520.8204710930843 486.8421883215507 422.3390716241807 486.8421883215507 300.85610886751635" stroke-opacity="1" stroke-linecap="round" stroke-miterlimit="10" stroke-dasharray=""/><path fill="none" stroke="rgb(0,0,0)" paint-order="fill stroke markers" d=" M 499.0876747424187 318.1290086273433 C 499.0876747424187 196.64604587067896 597.5690742113222 98.16464640177537 719.0520369679866 98.16464640177537 C 840.534999724651 98.16464640177537 939.0163991935545 196.64604587067896 939.0163991935545 318.1290086273433 C 939.0163991935545 439.61197138400763 840.534999724651 538.0933708529112 719.0520369679866 538.0933708529112 C 597.5690742113222 538.0933708529112 499.0876747424187 439.61197138400763 499.0876747424187 318.1290086273433" stroke-opacity="1" stroke-linecap="round" stroke-miterlimit="10" stroke-dasharray=""/><path fill="none" stroke="rgb(0,0,0)" paint-order="fill stroke markers" d=" M 509.4384893114176 336.59967839199714 C 509.4384893114176 215.1167156353328 607.9198887803211 116.63531616642922 729.4028515369855 116.63531616642922 C 850.8858142936499 116.63531616642922 949.3672137625534 215.1167156353328 949.3672137625534 336.59967839199714 C 949.3672137625534 458.0826411486615 850.8858142936499 556.5640406175651 729.4028515369855 556.5640406175651 C 607.9198887803211 556.5640406175651 509.4384893114176 458.0826411486615 509.4384893114176 336.59967839199714" stroke-opacity="1" stroke-linecap="round" stroke-miterlimit="10" stroke-dasharray=""/><path fill="none" stroke="rgb(0,0,0)" paint-order="fill stroke markers" d=" M 517.7786239794308 356.06110581950367 C 517.7786239794308 234.57814306283933 616.2600234483343 136.09674359393574 737.7429862049987 136.09674359393574 C 859.2259489616631 136.09674359393574 957.7073484305666 234.57814306283933 957.7073484305666 356.06110581950367 C 957.7073484305666 477.544068576168 859.2259489616631 576.0254680450716 737.7429862049987 576.0254680450716 C 616.2600234483343 576.0254680450716 517.7786239794308 477.544068576168 517.7786239794308 356.06110581950367" stroke-opacity="1" stroke-linecap="round" stroke-miterlimit="10" stroke-dasharray=""/><path fill="none" stroke="rgb(0,0,0)" paint-order="fill stroke markers" d=" M 524.0146056438581 376.29517452744335 C 524.0146056438581 254.81221177077902 622.4960051127616 156.33081230187543 743.978967869426 156.33081230187543 C 865.4619306260904 156.33081230187543 963.9433300949939 254.81221177077902 963.9433300949939 376.29517452744335 C 963.9433300949939 497.7781372841077 865.4619306260904 596.2595367530113 743.978967869426 596.2595367530113 C 622.4960051127616 596.2595367530113 524.0146056438581 497.7781372841077 524.0146056438581 376.29517452744335" stroke-opacity="1" stroke-linecap="round" stroke-miterlimit="10" stroke-dasharray=""/><path fill="none" stroke="rgb(0,0,0)" paint-order="fill stroke markers" d=" M 528.0765437601058 397.07510865959284 C 528.0765437601058 275.5921459029285 626.5579432290093 177.11074643402492 748.0409059856737 177.11074643402492 C 869.5238687423381 177.11074643402492 968.0052682112416 275.5921459029285 968.0052682112416 397.07510865959284 C 968.0052682112416 518.5580714162572 869.5238687423381 617.0394708851608 748.0409059856737 617.0394708851608 C 626.5579432290093 617.0394708851608 528.0765437601058 518.5580714162572 528.0765437601058 397.07510865959284" stroke-opacity="1" stroke-linecap="round" stroke-miterlimit="10" stroke-dasharray=""/><path fill="none" stroke="rgb(0,0,0)" paint-order="fill stroke markers" d=" M 529.9189136486083 418.1680145047019 C 529.9189136486083 296.68505174803755 628.4003131175118 198.20365227913396 749.8832758741762 198.20365227913396 C 871.3662386308406 198.20365227913396 969.8476380997441 296.68505174803755 969.8476380997441 418.1680145047019 C 969.8476380997441 539.6509772613663 871.3662386308406 638.1323767302698 749.8832758741762 638.1323767302698 C 628.4003131175118 638.1323767302698 529.9189136486083 539.6509772613663 529.9189136486083 418.1680145047019" stroke-opacity="1" stroke-linecap="round" stroke-miterlimit="10" stroke-dasharray=""/></g></svg>